<svg width="512" height="512" viewBox="0 0 512 512" fill="none" xmlns="http://www.w3.org/2000/svg">
  <defs>
    <linearGradient id="bottle04" x1="165" y1="135" x2="352" y2="448" gradientUnits="userSpaceOnUse">
      <stop stop-color="#F7F7F2"/>
      <stop offset=".33" stop-color="#E8DAC8"/>
      <stop offset="1" stop-color="#7C4628"/>
    </linearGradient>
    <linearGradient id="glass04" x1="201" y1="160" x2="327" y2="409" gradientUnits="userSpaceOnUse">
      <stop stop-color="#FFF9EA" stop-opacity=".74"/>
      <stop offset=".42" stop-color="#8D202B" stop-opacity=".34"/>
      <stop offset="1" stop-color="#130906" stop-opacity=".8"/>
    </linearGradient>
    <linearGradient id="leaf04" x1="142" y1="50" x2="390" y2="330" gradientUnits="userSpaceOnUse">
      <stop stop-color="#B7E48F"/>
      <stop offset=".46" stop-color="#1F8B4C"/>
      <stop offset="1" stop-color="#062A18"/>
    </linearGradient>
    <radialGradient id="fruit04" cx="0" cy="0" r="1" gradientUnits="userSpaceOnUse" gradientTransform="translate(281 83) rotate(90) scale(34)">
      <stop stop-color="#FFF0A7"/>
      <stop offset=".44" stop-color="#FFD700"/>
      <stop offset=".78" stop-color="#C43D42"/>
      <stop offset="1" stop-color="#8D202B"/>
    </radialGradient>
    <radialGradient id="glow04" cx="0" cy="0" r="1" gradientUnits="userSpaceOnUse" gradientTransform="translate(261 122) rotate(90) scale(150)">
      <stop stop-color="#FFD700" stop-opacity=".72"/>
      <stop offset=".55" stop-color="#F5A623" stop-opacity=".28"/>
      <stop offset="1" stop-color="#F5A623" stop-opacity="0"/>
    </radialGradient>
    <filter id="soft04" x="44" y="-8" width="424" height="474" filterUnits="userSpaceOnUse" color-interpolation-filters="sRGB">
      <feDropShadow dx="0" dy="18" stdDeviation="18" flood-color="#130906" flood-opacity=".42"/>
      <feDropShadow dx="-8" dy="-8" stdDeviation="10" flood-color="#FFFFFF" flood-opacity=".2"/>
      <feDropShadow dx="10" dy="12" stdDeviation="18" flood-color="#8D202B" flood-opacity=".2"/>
    </filter>
    <pattern id="noise04" width="32" height="32" patternUnits="userSpaceOnUse">
      <path d="M4 8h1v1H4zM15 3h1v1h-1zM25 17h1v1h-1zM8 25h1v1H8zM21 29h1v1h-1z" fill="#130906" opacity=".16"/>
      <path d="M13 13h1v1h-1zM30 7h1v1h-1zM2 20h1v1H2z" fill="#fff" opacity=".2"/>
    </pattern>
  </defs>
  <ellipse cx="256" cy="438" rx="132" ry="29" fill="#130906" opacity=".34"/>
  <g filter="url(#soft04)">
    <path d="M226 107c0-13 10-23 23-23h14c13 0 23 10 23 23v57c0 14 8 27 19 36 27 23 45 63 45 109v83c0 32-26 58-58 58h-72c-32 0-58-26-58-58v-83c0-46 18-86 45-109 11-9 19-22 19-36v-57z" fill="url(#bottle04)"/>
    <path d="M226 107c0-13 10-23 23-23h14c13 0 23 10 23 23v57c0 14 8 27 19 36 27 23 45 63 45 109v83c0 32-26 58-58 58h-72c-32 0-58-26-58-58v-83c0-46 18-86 45-109 11-9 19-22 19-36v-57z" fill="url(#glass04)" opacity=".84"/>
    <path d="M235 103c0-7 6-13 13-13h16c7 0 13 6 13 13v58c0 17 9 33 23 43 24 18 40 54 40 96v89c0 27-22 49-49 49h-70c-27 0-49-22-49-49v-89c0-42 16-78 40-96 14-10 23-26 23-43v-58z" stroke="#FFF9EA" stroke-opacity=".56" stroke-width="7"/>
    <path d="M187 292c10-39 29-67 53-78" stroke="#FFF9EA" stroke-opacity=".32" stroke-width="9" stroke-linecap="round"/>
    <rect x="207" y="322" width="98" height="54" rx="17" fill="#F7F7F2" opacity=".9"/>
    <rect x="216" y="334" width="80" height="6" rx="3" fill="#130906" opacity=".7"/>
    <rect x="224" y="350" width="64" height="5" rx="2.5" fill="#8D202B" opacity=".72"/>
  </g>
  <g filter="url(#soft04)">
    <path d="M256 280C245 209 250 137 272 65" stroke="#1F8B4C" stroke-width="15" stroke-linecap="round"/>
    <path d="M261 181c-50-8-88-34-113-77 58-14 104 5 138 55" fill="url(#leaf04)"/>
    <path d="M255 231c-51 2-92-17-124-57 58-21 108-7 149 38" fill="url(#leaf04)"/>
    <path d="M264 226c44-48 98-72 161-70-11 62-52 101-123 118" fill="url(#leaf04)"/>
    <path d="M272 149c45-44 94-63 147-56-19 55-64 87-133 96" fill="url(#leaf04)"/>
    <path d="M272 77c-24 43-54 78-90 105" stroke="#FFD700" stroke-width="4" stroke-linecap="round" opacity=".62"/>
    <path d="M273 77c30 35 61 64 94 87" stroke="#FFD700" stroke-width="4" stroke-linecap="round" opacity=".62"/>
    <circle cx="281" cy="83" r="35" fill="url(#fruit04)"/>
    <circle cx="226" cy="116" r="27" fill="url(#fruit04)"/>
    <circle cx="325" cy="124" r="25" fill="url(#fruit04)"/>
    <circle cx="195" cy="166" r="20" fill="url(#fruit04)"/>
    <circle cx="365" cy="173" r="19" fill="url(#fruit04)"/>
    <circle cx="282" cy="178" r="18" fill="url(#fruit04)"/>
    <path d="M266 53c10 33 10 69 1 108" stroke="#FFF9EA" stroke-opacity=".32" stroke-width="5" stroke-linecap="round"/>
    <path d="M302 70c-9 28-26 57-51 88" stroke="#130906" stroke-opacity=".18" stroke-width="5" stroke-linecap="round"/>
    <circle cx="256" cy="130" r="106" fill="url(#glow04)"/>
    <path d="M272 67l10 15-16 8-8-12 14-11zM220 101l8 13-13 6-7-10 12-9zM320 112l8 10-11 8-8-9 11-9z" fill="#F7F7F2" opacity=".76"/>
  </g>
  <rect x="126" y="76" width="260" height="374" rx="82" fill="url(#noise04)" opacity=".18"/>
</svg>
