<svg width="512" height="512" viewBox="0 0 512 512" fill="none" xmlns="http://www.w3.org/2000/svg">
  <defs>
    <linearGradient id="bottle03" x1="165" y1="134" x2="352" y2="448" gradientUnits="userSpaceOnUse">
      <stop stop-color="#F7F7F2"/>
      <stop offset=".34" stop-color="#E8DAC8"/>
      <stop offset="1" stop-color="#7C4628"/>
    </linearGradient>
    <linearGradient id="glass03" x1="201" y1="159" x2="327" y2="409" gradientUnits="userSpaceOnUse">
      <stop stop-color="#FFF9EA" stop-opacity=".74"/>
      <stop offset=".42" stop-color="#8D202B" stop-opacity=".34"/>
      <stop offset="1" stop-color="#130906" stop-opacity=".8"/>
    </linearGradient>
    <linearGradient id="leaf03" x1="177" y1="93" x2="355" y2="322" gradientUnits="userSpaceOnUse">
      <stop stop-color="#B7E48F"/>
      <stop offset=".46" stop-color="#1F8B4C"/>
      <stop offset="1" stop-color="#062A18"/>
    </linearGradient>
    <radialGradient id="petal03" cx="0" cy="0" r="1" gradientUnits="userSpaceOnUse" gradientTransform="translate(257 105) rotate(90) scale(93)">
      <stop stop-color="#FFF0A7"/>
      <stop offset=".38" stop-color="#FFD700"/>
      <stop offset=".72" stop-color="#C43D42"/>
      <stop offset="1" stop-color="#8D202B"/>
    </radialGradient>
    <radialGradient id="glow03" cx="0" cy="0" r="1" gradientUnits="userSpaceOnUse" gradientTransform="translate(257 128) rotate(90) scale(132)">
      <stop stop-color="#FFD700" stop-opacity=".78"/>
      <stop offset=".55" stop-color="#F5A623" stop-opacity=".28"/>
      <stop offset="1" stop-color="#F5A623" stop-opacity="0"/>
    </radialGradient>
    <filter id="soft03" x="54" y="10" width="404" height="456" filterUnits="userSpaceOnUse" color-interpolation-filters="sRGB">
      <feDropShadow dx="0" dy="18" stdDeviation="18" flood-color="#130906" flood-opacity=".42"/>
      <feDropShadow dx="-8" dy="-8" stdDeviation="10" flood-color="#FFFFFF" flood-opacity=".2"/>
      <feDropShadow dx="10" dy="12" stdDeviation="18" flood-color="#8D202B" flood-opacity=".2"/>
    </filter>
    <pattern id="noise03" width="32" height="32" patternUnits="userSpaceOnUse">
      <path d="M4 8h1v1H4zM15 3h1v1h-1zM25 17h1v1h-1zM8 25h1v1H8zM21 29h1v1h-1z" fill="#130906" opacity=".16"/>
      <path d="M13 13h1v1h-1zM30 7h1v1h-1zM2 20h1v1H2z" fill="#fff" opacity=".2"/>
    </pattern>
  </defs>
  <ellipse cx="256" cy="438" rx="130" ry="29" fill="#130906" opacity=".34"/>
  <g filter="url(#soft03)">
    <path d="M226 107c0-13 10-23 23-23h14c13 0 23 10 23 23v57c0 14 8 27 19 36 27 23 45 63 45 109v83c0 32-26 58-58 58h-72c-32 0-58-26-58-58v-83c0-46 18-86 45-109 11-9 19-22 19-36v-57z" fill="url(#bottle03)"/>
    <path d="M226 107c0-13 10-23 23-23h14c13 0 23 10 23 23v57c0 14 8 27 19 36 27 23 45 63 45 109v83c0 32-26 58-58 58h-72c-32 0-58-26-58-58v-83c0-46 18-86 45-109 11-9 19-22 19-36v-57z" fill="url(#glass03)" opacity=".84"/>
    <path d="M235 103c0-7 6-13 13-13h16c7 0 13 6 13 13v58c0 17 9 33 23 43 24 18 40 54 40 96v89c0 27-22 49-49 49h-70c-27 0-49-22-49-49v-89c0-42 16-78 40-96 14-10 23-26 23-43v-58z" stroke="#FFF9EA" stroke-opacity=".56" stroke-width="7"/>
    <path d="M187 292c10-39 29-67 53-78" stroke="#FFF9EA" stroke-opacity=".32" stroke-width="9" stroke-linecap="round"/>
    <rect x="207" y="322" width="98" height="54" rx="17" fill="#F7F7F2" opacity=".9"/>
    <rect x="216" y="334" width="80" height="6" rx="3" fill="#130906" opacity=".7"/>
    <rect x="224" y="350" width="64" height="5" rx="2.5" fill="#8D202B" opacity=".72"/>
  </g>
  <g filter="url(#soft03)">
    <path d="M256 279C247 216 250 159 267 102" stroke="#1F8B4C" stroke-width="15" stroke-linecap="round"/>
    <path d="M260 176c-42-9-73-31-93-66 48-11 86 4 115 43" fill="url(#leaf03)"/>
    <path d="M258 226c-42-2-76-20-101-53 48-15 89-4 122 32" fill="url(#leaf03)"/>
    <path d="M260 228c39-38 85-55 138-48-13 50-49 82-106 95" fill="url(#leaf03)"/>
    <path d="M269 160c39-34 79-47 121-39-19 42-56 66-110 72" fill="url(#leaf03)"/>
    <ellipse cx="257" cy="103" rx="31" ry="78" fill="url(#petal03)"/>
    <ellipse cx="257" cy="103" rx="31" ry="78" fill="#FFF9EA" opacity=".12"/>
    <ellipse cx="207" cy="129" rx="31" ry="70" fill="url(#petal03)" transform="rotate(-45 207 129)"/>
    <ellipse cx="307" cy="129" rx="31" ry="70" fill="url(#petal03)" transform="rotate(45 307 129)"/>
    <ellipse cx="201" cy="83" rx="28" ry="62" fill="url(#petal03)" transform="rotate(-76 201 83)"/>
    <ellipse cx="313" cy="83" rx="28" ry="62" fill="url(#petal03)" transform="rotate(76 313 83)"/>
    <circle cx="257" cy="117" r="28" fill="#FFD700"/>
    <circle cx="257" cy="117" r="13" fill="#130906" opacity=".72"/>
    <circle cx="257" cy="117" r="92" fill="url(#glow03)"/>
    <path d="M240 63c12 34 15 70 8 108" stroke="#FFF9EA" stroke-opacity=".3" stroke-width="5" stroke-linecap="round"/>
    <path d="M294 91c-10 22-25 44-46 67" stroke="#130906" stroke-opacity=".17" stroke-width="5" stroke-linecap="round"/>
    <circle cx="330" cy="184" r="10" fill="#FFD700"/>
    <circle cx="189" cy="173" r="8" fill="#C43D42"/>
    <path d="M179 166c24 11 50 30 78 58" stroke="#FFD700" stroke-width="3" stroke-linecap="round" opacity=".62"/>
    <path d="M333 163c-23 22-43 53-60 93" stroke="#FFD700" stroke-width="3" stroke-linecap="round" opacity=".54"/>
  </g>
  <rect x="126" y="76" width="260" height="374" rx="82" fill="url(#noise03)" opacity=".18"/>
</svg>
