<svg width="512" height="512" viewBox="0 0 512 512" fill="none" xmlns="http://www.w3.org/2000/svg">
  <defs>
    <linearGradient id="bottle01" x1="168" y1="139" x2="345" y2="441" gradientUnits="userSpaceOnUse">
      <stop stop-color="#F7F7F2"/>
      <stop offset=".36" stop-color="#E8DAC8"/>
      <stop offset="1" stop-color="#8D5A35"/>
    </linearGradient>
    <linearGradient id="glass01" x1="205" y1="168" x2="323" y2="402" gradientUnits="userSpaceOnUse">
      <stop stop-color="#FFF9EA" stop-opacity=".72"/>
      <stop offset=".48" stop-color="#8D202B" stop-opacity=".28"/>
      <stop offset="1" stop-color="#130906" stop-opacity=".72"/>
    </linearGradient>
    <linearGradient id="leaf01" x1="221" y1="188" x2="294" y2="313" gradientUnits="userSpaceOnUse">
      <stop stop-color="#B7E48F"/>
      <stop offset=".46" stop-color="#1F8B4C"/>
      <stop offset="1" stop-color="#062A18"/>
    </linearGradient>
    <radialGradient id="glow01" cx="0" cy="0" r="1" gradientUnits="userSpaceOnUse" gradientTransform="translate(291 212) rotate(111) scale(90 74)">
      <stop stop-color="#FFD700" stop-opacity=".95"/>
      <stop offset=".42" stop-color="#F5A623" stop-opacity=".38"/>
      <stop offset="1" stop-color="#F5A623" stop-opacity="0"/>
    </radialGradient>
    <filter id="soft01" x="80" y="66" width="352" height="398" filterUnits="userSpaceOnUse" color-interpolation-filters="sRGB">
      <feDropShadow dx="0" dy="18" stdDeviation="18" flood-color="#130906" flood-opacity=".38"/>
      <feDropShadow dx="-8" dy="-8" stdDeviation="10" flood-color="#FFFFFF" flood-opacity=".22"/>
      <feDropShadow dx="8" dy="10" stdDeviation="16" flood-color="#8D202B" flood-opacity=".16"/>
    </filter>
    <filter id="inner01" x="-20%" y="-20%" width="140%" height="140%">
      <feGaussianBlur in="SourceAlpha" stdDeviation="5" result="blur"/>
      <feOffset dx="-4" dy="-5" result="light"/>
      <feComposite in="light" in2="SourceAlpha" operator="arithmetic" k2="-1" k3="1" result="lightInner"/>
      <feColorMatrix in="lightInner" type="matrix" values="1 0 0 0 1 0 1 0 0 1 0 0 1 0 1 0 0 0 .5 0"/>
      <feBlend in="SourceGraphic" mode="screen"/>
    </filter>
    <pattern id="noise01" width="32" height="32" patternUnits="userSpaceOnUse">
      <path d="M5 7h1v1H5zM19 4h1v1h-1zM27 18h1v1h-1zM10 25h1v1h-1zM23 29h1v1h-1z" fill="#130906" opacity=".16"/>
      <path d="M14 12h1v1h-1zM30 8h1v1h-1zM3 20h1v1H3z" fill="#fff" opacity=".2"/>
    </pattern>
  </defs>
  <ellipse cx="256" cy="438" rx="126" ry="28" fill="#130906" opacity=".34"/>
  <g filter="url(#soft01)">
    <path d="M226 107c0-13 10-23 23-23h14c13 0 23 10 23 23v57c0 14 8 27 19 36 27 23 45 63 45 109v83c0 32-26 58-58 58h-72c-32 0-58-26-58-58v-83c0-46 18-86 45-109 11-9 19-22 19-36v-57z" fill="url(#bottle01)"/>
    <path d="M226 107c0-13 10-23 23-23h14c13 0 23 10 23 23v57c0 14 8 27 19 36 27 23 45 63 45 109v83c0 32-26 58-58 58h-72c-32 0-58-26-58-58v-83c0-46 18-86 45-109 11-9 19-22 19-36v-57z" fill="url(#glass01)" opacity=".82"/>
    <path d="M234 103c0-7 6-13 13-13h18c7 0 13 6 13 13v58c0 17 9 33 23 43 24 18 40 54 40 96v89c0 27-22 49-49 49h-72c-27 0-49-22-49-49v-89c0-42 16-78 40-96 14-10 23-26 23-43v-58z" stroke="#FFF9EA" stroke-opacity=".58" stroke-width="7"/>
    <path d="M188 294c10-40 29-67 52-78" stroke="#FFF9EA" stroke-opacity=".34" stroke-width="9" stroke-linecap="round"/>
    <path d="M296 122c12 16 14 38 7 59" stroke="#130906" stroke-opacity=".18" stroke-width="7" stroke-linecap="round"/>
    <rect x="207" y="322" width="98" height="54" rx="17" fill="#F7F7F2" opacity=".9"/>
    <rect x="216" y="334" width="80" height="6" rx="3" fill="#130906" opacity=".7"/>
    <rect x="224" y="350" width="64" height="5" rx="2.5" fill="#8D202B" opacity=".72"/>
  </g>
  <g filter="url(#soft01)">
    <path d="M257 268C256 242 253 217 245 193" stroke="#1F8B4C" stroke-width="13" stroke-linecap="round"/>
    <path d="M255 264c-20-12-34-27-40-48 25-2 43 8 53 31" fill="url(#leaf01)"/>
    <path d="M260 259c18-20 37-30 62-29-4 27-20 44-47 52" fill="url(#leaf01)"/>
    <path d="M247 205c12-19 28-28 49-28-1 22-14 36-37 43" fill="url(#leaf01)"/>
    <path d="M258 189c7 20 8 45 4 77" stroke="#F7F7F2" stroke-opacity=".28" stroke-width="4" stroke-linecap="round"/>
    <circle cx="292" cy="212" r="14" fill="#FFD700"/>
    <circle cx="292" cy="212" r="34" fill="url(#glow01)"/>
    <path d="M289 202l11 10-11 10-8-10 8-10z" fill="#F7F7F2" opacity=".8"/>
    <path d="M213 219c11 7 23 17 35 31" stroke="#FFD700" stroke-width="3" stroke-linecap="round" opacity=".7"/>
  </g>
  <rect x="126" y="76" width="260" height="374" rx="82" fill="url(#noise01)" opacity=".18"/>
</svg>
