<svg width="512" height="512" viewBox="0 0 512 512" fill="none" xmlns="http://www.w3.org/2000/svg">
  <defs>
    <linearGradient id="bottle02" x1="167" y1="133" x2="350" y2="445" gradientUnits="userSpaceOnUse">
      <stop stop-color="#F7F7F2"/>
      <stop offset=".34" stop-color="#E8DAC8"/>
      <stop offset="1" stop-color="#7C4628"/>
    </linearGradient>
    <linearGradient id="glass02" x1="201" y1="159" x2="326" y2="408" gradientUnits="userSpaceOnUse">
      <stop stop-color="#FFF9EA" stop-opacity=".72"/>
      <stop offset=".45" stop-color="#8D202B" stop-opacity=".32"/>
      <stop offset="1" stop-color="#130906" stop-opacity=".78"/>
    </linearGradient>
    <linearGradient id="leaf02" x1="199" y1="123" x2="333" y2="315" gradientUnits="userSpaceOnUse">
      <stop stop-color="#B7E48F"/>
      <stop offset=".46" stop-color="#1F8B4C"/>
      <stop offset="1" stop-color="#062A18"/>
    </linearGradient>
    <linearGradient id="bud02" x1="226" y1="92" x2="304" y2="189" gradientUnits="userSpaceOnUse">
      <stop stop-color="#FFF0A7"/>
      <stop offset=".46" stop-color="#F5A623"/>
      <stop offset="1" stop-color="#8D202B"/>
    </linearGradient>
    <radialGradient id="glow02" cx="0" cy="0" r="1" gradientUnits="userSpaceOnUse" gradientTransform="translate(260 138) rotate(90) scale(100)">
      <stop stop-color="#FFD700" stop-opacity=".74"/>
      <stop offset="1" stop-color="#FFD700" stop-opacity="0"/>
    </radialGradient>
    <filter id="soft02" x="70" y="36" width="372" height="428" filterUnits="userSpaceOnUse" color-interpolation-filters="sRGB">
      <feDropShadow dx="0" dy="18" stdDeviation="18" flood-color="#130906" flood-opacity=".4"/>
      <feDropShadow dx="-8" dy="-8" stdDeviation="10" flood-color="#FFFFFF" flood-opacity=".22"/>
      <feDropShadow dx="9" dy="12" stdDeviation="17" flood-color="#8D202B" flood-opacity=".18"/>
    </filter>
    <pattern id="noise02" width="32" height="32" patternUnits="userSpaceOnUse">
      <path d="M4 8h1v1H4zM15 3h1v1h-1zM25 17h1v1h-1zM8 25h1v1H8zM21 29h1v1h-1z" fill="#130906" opacity=".16"/>
      <path d="M13 13h1v1h-1zM30 7h1v1h-1zM2 20h1v1H2z" fill="#fff" opacity=".2"/>
    </pattern>
  </defs>
  <ellipse cx="256" cy="438" rx="128" ry="28" fill="#130906" opacity=".34"/>
  <g filter="url(#soft02)">
    <path d="M226 107c0-13 10-23 23-23h14c13 0 23 10 23 23v57c0 14 8 27 19 36 27 23 45 63 45 109v83c0 32-26 58-58 58h-72c-32 0-58-26-58-58v-83c0-46 18-86 45-109 11-9 19-22 19-36v-57z" fill="url(#bottle02)"/>
    <path d="M226 107c0-13 10-23 23-23h14c13 0 23 10 23 23v57c0 14 8 27 19 36 27 23 45 63 45 109v83c0 32-26 58-58 58h-72c-32 0-58-26-58-58v-83c0-46 18-86 45-109 11-9 19-22 19-36v-57z" fill="url(#glass02)" opacity=".84"/>
    <path d="M235 103c0-7 6-13 13-13h16c7 0 13 6 13 13v58c0 17 9 33 23 43 24 18 40 54 40 96v89c0 27-22 49-49 49h-70c-27 0-49-22-49-49v-89c0-42 16-78 40-96 14-10 23-26 23-43v-58z" stroke="#FFF9EA" stroke-opacity=".56" stroke-width="7"/>
    <path d="M187 292c10-39 29-67 53-78" stroke="#FFF9EA" stroke-opacity=".32" stroke-width="9" stroke-linecap="round"/>
    <rect x="207" y="322" width="98" height="54" rx="17" fill="#F7F7F2" opacity=".9"/>
    <rect x="216" y="334" width="80" height="6" rx="3" fill="#130906" opacity=".7"/>
    <rect x="224" y="350" width="64" height="5" rx="2.5" fill="#8D202B" opacity=".72"/>
  </g>
  <g filter="url(#soft02)">
    <path d="M256 274C251 221 255 176 268 134" stroke="#1F8B4C" stroke-width="14" stroke-linecap="round"/>
    <path d="M265 174c-30-11-50-30-60-57 35-3 61 13 76 45" fill="url(#leaf02)"/>
    <path d="M260 220c-34-8-59-27-74-57 40-7 70 7 91 41" fill="url(#leaf02)"/>
    <path d="M259 229c32-27 68-38 109-31-10 37-36 61-78 71" fill="url(#leaf02)"/>
    <path d="M271 167c31-24 62-30 94-18-17 29-45 45-84 47" fill="url(#leaf02)"/>
    <ellipse cx="268" cy="128" rx="33" ry="43" fill="url(#bud02)"/>
    <path d="M241 128c12-25 29-37 52-41 5 28-2 51-23 70-15-4-25-13-29-29z" fill="#F7F7F2" opacity=".2"/>
    <path d="M269 91c10 25 10 48 0 74" stroke="#130906" stroke-opacity=".18" stroke-width="5" stroke-linecap="round"/>
    <path d="M257 91c-4 23-3 46 3 70" stroke="#FFF9EA" stroke-opacity=".34" stroke-width="5" stroke-linecap="round"/>
    <ellipse cx="268" cy="128" rx="70" ry="82" fill="url(#glow02)"/>
    <circle cx="331" cy="182" r="10" fill="#FFD700"/>
    <circle cx="216" cy="166" r="7" fill="#8D202B"/>
    <path d="M203 161c17 8 35 23 54 43" stroke="#FFD700" stroke-width="3" stroke-linecap="round" opacity=".62"/>
    <path d="M303 164c-12 15-22 34-31 58" stroke="#FFD700" stroke-width="3" stroke-linecap="round" opacity=".54"/>
  </g>
  <rect x="126" y="76" width="260" height="374" rx="82" fill="url(#noise02)" opacity=".18"/>
</svg>
