<svg xmlns="http://www.w3.org/2000/svg" viewBox="0 0 220 220" role="img" aria-label="Dassai sake sticker">
  <defs>
    <filter id="softShadow" x="-40%" y="-40%" width="180%" height="180%">
      <feDropShadow dx="0" dy="8" stdDeviation="7" flood-color="#07150d" flood-opacity=".23"/>
      <feDropShadow dx="0" dy="18" stdDeviation="16" flood-color="#07150d" flood-opacity=".12"/>
    </filter>
    <filter id="frost">
      <feTurbulence type="fractalNoise" baseFrequency=".9" numOctaves="2" seed="33" result="noise"/>
      <feColorMatrix in="noise" type="matrix" values="0 0 0 0 1 0 0 0 0 1 0 0 0 0 1 0 0 0 .18 0" result="grain"/>
      <feBlend in="SourceGraphic" in2="grain" mode="screen"/>
    </filter>
    <linearGradient id="green" x1="72" x2="142" y1="39" y2="199" gradientUnits="userSpaceOnUse">
      <stop stop-color="#021910"/>
      <stop offset=".28" stop-color="#0d5332"/>
      <stop offset=".52" stop-color="#4ea66b"/>
      <stop offset=".66" stop-color="#b6d874"/>
      <stop offset="1" stop-color="#062415"/>
    </linearGradient>
  </defs>
  <g filter="url(#softShadow)">
    <path fill="#fff" d="M95 8h23c16 0 27 11 27 27v29c13 8 21 21 21 39v61c0 29-17 46-45 46H92c-28 0-45-17-45-46v-61c0-18 8-31 21-39V35C68 19 79 8 95 8z"/>
    <g filter="url(#frost)">
      <path fill="#d8c8b1" d="M82 23c0-9 6-15 15-15h20c9 0 15 6 15 15v45H82V23z"/>
      <path fill="url(#green)" d="M73 64h68c14 8 22 21 22 40v61c0 21-14 35-35 35H86c-21 0-35-14-35-35v-61c0-19 8-32 22-40z"/>
      <rect x="75" y="102" width="63" height="55" rx="7" fill="#fbfbf4"/>
      <text x="107" y="136" text-anchor="middle" font-family="Hiragino Sans, Arial, sans-serif" font-size="27" font-weight="900" fill="#18251d">酒</text>
      <path d="M90 112h35M85 148h44" stroke="#19261e" stroke-width="3" stroke-linecap="round" opacity=".55"/>
      <path fill="#fff" d="M92 67c-6 20-7 59-5 96" opacity=".38"/>
      <path fill="#e7f4ca" d="M123 68c10 20 13 76 5 130" opacity=".32"/>
      <circle cx="85" cy="80" r="5" fill="#fff" opacity=".5"/>
    </g>
  </g>
</svg>
